<?xml version="1.0" encoding="utf-8"?>
<!-- Generator: Adobe Illustrator 28.0.0, SVG Export Plug-In . SVG Version: 6.00 Build 0)  -->
<svg version="1.1" id="Calque_1" xmlns="http://www.w3.org/2000/svg" xmlns:xlink="http://www.w3.org/1999/xlink" x="0px" y="0px"
	 viewBox="0 0 1118 472" style="enable-background:new 0 0 1118 472;" xml:space="preserve">
<style type="text/css">
	.st0{fill:#FFFFFF;}
	.st1{fill:#36353A;}
	.st2{fill:#8CB3D2;}
	.st3{fill:none;stroke:#36353A;stroke-width:8;stroke-miterlimit:10;}
</style>
<rect x="-22" y="-25" class="st0" width="1157" height="519"/>
<g>
	<polygon class="st1" points="359.2,332.3 256.8,216.2 343.3,104.6 284.1,104.6 195.3,219.3 195.3,81.3 141.5,60.5 140.6,334.6 
		195.3,334.6 195.3,220.6 293.2,332.3 	"/>
</g>
<g>
	<polygon class="st1" points="784,332.3 681.5,216.2 768,104.6 708.8,104.6 620,219.3 620,98 565.4,98 565.4,334.6 620,334.6 
		620,220.6 717.9,332.3 	"/>
</g>
<g>
	<g>
		<path class="st1" d="M977.1,122.2v-20.5h-47.8h-4.6v12.1c-19.2-13-42.4-20.5-67.3-20.5c-66.7,0-120.7,54-120.7,120.7
			s54,120.7,120.7,120.7c24.9,0,48.1-7.6,67.3-20.5v17.6h52.4v-20.5V122.2z M857.3,286.8c-39.3,0-71.1-31.8-71.1-71.1
			c0-39.3,31.8-71.1,71.1-71.1c39.3,0,71.1,31.8,71.1,71.1C928.5,254.9,896.6,286.8,857.3,286.8z"/>
	</g>
</g>
<g>
	<g>
		<path class="st2" d="M809.6,389.8c-3.7,0-7-0.9-9.9-2.6c-2.9-1.7-5.2-4.1-6.9-7.1c-1.7-3-2.5-6.4-2.5-10.2c0-3.8,0.8-7.2,2.5-10.2
			c1.7-3,4-5.3,6.9-7.1c2.9-1.7,6.2-2.6,9.8-2.6c3.1,0,5.8,0.6,8.2,1.8c2.4,1.2,4.3,2.8,5.9,5c1.5,2.1,2.4,4.7,2.7,7.6v11.1
			c-0.3,2.8-1.3,5.3-2.8,7.5c-1.5,2.1-3.4,3.8-5.8,5C815.3,389.2,812.6,389.8,809.6,389.8z M809.2,407.6c-4,0-7.5-0.7-10.6-2.2
			c-3.1-1.5-5.6-3.6-7.5-6.2l3.8-3.8c1.6,2.1,3.5,3.8,5.9,4.9c2.4,1.2,5.2,1.8,8.4,1.8c4.5,0,8.1-1.2,10.7-3.6
			c2.6-2.4,3.9-5.7,3.9-9.8v-9.8l1.2-9l-1.2-8.9v-10.1h5.9v37.7c0,3.8-0.9,7.1-2.6,10c-1.7,2.8-4.2,5.1-7.3,6.7
			C816.9,406.8,813.3,407.6,809.2,407.6z M810.7,384.2c2.7,0,5-0.6,7.1-1.8s3.6-2.8,4.8-5c1.1-2.1,1.7-4.7,1.7-7.6
			c0-2.8-0.6-5.3-1.7-7.4c-1.1-2.1-2.7-3.8-4.8-5c-2-1.2-4.4-1.8-7.1-1.8c-2.7,0-5.2,0.6-7.3,1.8c-2.1,1.2-3.8,2.9-5,5
			c-1.2,2.1-1.8,4.6-1.8,7.4c0,2.8,0.6,5.3,1.8,7.4c1.2,2.2,2.9,3.9,5,5.1C805.5,383.6,807.9,384.2,810.7,384.2z"/>
		<path class="st2" d="M835,390.2v-39.3h5.9v39.3H835z M841,367.3l-2.4-1c0-5,1.2-9,3.6-11.9c2.4-2.9,5.8-4.3,10-4.3
			c2,0,3.7,0.3,5.3,1s3.1,1.8,4.5,3.3l-3.9,4.1c-0.9-1-1.9-1.7-3.1-2.2c-1.1-0.4-2.4-0.7-3.9-0.7c-3,0-5.5,1-7.4,2.9
			C841.9,360.6,841,363.5,841,367.3z"/>
		<path class="st2" d="M878.2,391.1c-3.8,0-7.3-0.9-10.4-2.8c-3.1-1.8-5.5-4.3-7.3-7.4c-1.8-3.1-2.7-6.6-2.7-10.5
			c0-3.8,0.9-7.2,2.7-10.3c1.8-3.1,4.2-5.5,7.3-7.3c3.1-1.8,6.5-2.7,10.4-2.7c3.8,0,7.2,0.9,10.3,2.7c3.1,1.8,5.5,4.2,7.4,7.3
			c1.8,3.1,2.7,6.5,2.7,10.3c0,3.9-0.9,7.4-2.7,10.5c-1.8,3.1-4.3,5.6-7.4,7.4C885.4,390.2,882,391.1,878.2,391.1z M878.2,385.4
			c2.7,0,5.2-0.6,7.4-1.9c2.2-1.3,3.9-3.1,5.1-5.4c1.2-2.3,1.8-4.9,1.8-7.7c0-2.8-0.6-5.3-1.9-7.5c-1.3-2.2-3-3.9-5.1-5.2
			c-2.1-1.3-4.6-1.9-7.3-1.9c-2.7,0-5.2,0.6-7.4,1.9c-2.2,1.3-3.9,3-5.1,5.2c-1.2,2.2-1.8,4.7-1.8,7.5c0,2.9,0.6,5.5,1.8,7.7
			c1.2,2.3,2.9,4,5.1,5.3C873,384.7,875.4,385.4,878.2,385.4z"/>
		<path class="st2" d="M916.9,391.1c-3.2,0-6-0.7-8.6-2.2c-2.5-1.5-4.5-3.5-5.9-6.1c-1.4-2.6-2.1-5.6-2.1-9v-22.8h5.9v22.6
			c0,2.4,0.4,4.5,1.3,6.3c0.9,1.8,2.1,3.2,3.7,4.2s3.5,1.5,5.6,1.5c3.3,0,5.9-1.1,7.8-3.3c1.9-2.2,2.8-5.1,2.8-8.7v-22.6h5.9v22.8
			c0,3.4-0.7,6.4-2.1,9c-1.4,2.6-3.3,4.7-5.8,6.1C923,390.4,920.1,391.1,916.9,391.1z"/>
		<path class="st2" d="M937.8,406.8v-55.9h5.9v10l-1.2,9.6l1.2,9.6v26.6H937.8z M958.2,391.1c-3,0-5.7-0.6-8.1-1.8
			c-2.4-1.2-4.4-2.9-5.9-5.1c-1.5-2.1-2.5-4.6-2.8-7.5v-12.3c0.3-2.9,1.3-5.4,2.8-7.6c1.6-2.1,3.6-3.8,6-5c2.4-1.2,5.1-1.8,8-1.8
			c3.6,0,6.9,0.9,9.8,2.7c2.9,1.8,5.2,4.3,6.9,7.4c1.7,3.1,2.5,6.6,2.5,10.5c0,3.8-0.8,7.3-2.5,10.4c-1.7,3.1-4,5.5-6.9,7.3
			C965,390.2,961.8,391.1,958.2,391.1z M957.1,385.5c2.8,0,5.2-0.6,7.4-1.9c2.1-1.3,3.8-3,5-5.3c1.2-2.3,1.8-4.8,1.8-7.7
			c0-2.9-0.6-5.5-1.8-7.7s-2.9-4-5-5.3c-2.1-1.3-4.5-1.9-7.2-1.9c-2.7,0-5.1,0.6-7.2,1.9c-2.1,1.3-3.7,3-4.9,5.3
			c-1.2,2.3-1.8,4.8-1.8,7.7c0,2.9,0.6,5.5,1.8,7.7c1.2,2.3,2.8,4,4.8,5.3C952,384.8,954.4,385.5,957.1,385.5z"/>
	</g>
</g>
<g>
	<circle class="st2" cx="435.2" cy="214.3" r="11.9"/>
</g>
<circle class="st3" cx="435.2" cy="214.3" r="119"/>
<g>
</g>
<g>
</g>
<g>
</g>
<g>
</g>
<g>
</g>
<g>
</g>
<g>
</g>
<g>
</g>
<g>
</g>
<g>
</g>
<g>
</g>
<g>
</g>
<g>
</g>
<g>
</g>
<g>
</g>
</svg>
